<svg height="800" viewBox="0 0 1024 1024" width="800" xmlns="http://www.w3.org/2000/svg" fill="white"><path d="m128 352.576v-.576a288 288 0 0 1 491.072-204.224 192 192 0 0 1 274.24 204.48 64 64 0 0 1 57.216 74.24c-28.928 174.016-100.48 284.16-214.528 330.496v43.008a96 96 0 0 1 -96 96h-256a96 96 0 0 1 -96-96v-43.008c-114.048-46.336-185.6-156.48-214.528-330.496a64 64 0 0 1 54.528-73.856zm64-.576h64a160 160 0 0 1 320 0h64a224 224 0 0 0 -448 0zm128 0h192a96 96 0 0 0 -192 0zm439.424 0h68.544a128.256 128.256 0 0 0 -123.968-160c-15.36 0-29.952 2.688-43.52 7.616 11.328 18.176 20.672 37.76 27.84 58.304a64.128 64.128 0 0 1 71.104 94.08zm-87.424 416h-320v32a32 32 0 0 0 32 32h256a32 32 0 0 0 32-32zm-342.528-64h365.056c101.504-32.64 165.76-124.928 192.896-288h-750.848c27.136 163.072 91.392 255.36 192.896 288z"/></svg>